Coordinates
version=1
nRows=20
nColumns=38
inDegrees=no

Units are S.I. units (second, meters, Newtons, ...)
If the header above contains a line with 'inDegrees', this indicates whether rotational values are in degrees (yes) or radians (no).

endheader
time	pelvis_tilt	pelvis_list	pelvis_rotation	pelvis_tx	pelvis_ty	pelvis_tz	hip_flexion_r	hip_adduction_r	hip_rotation_r	knee_angle_r	ankle_angle_r	subtalar_angle_r	mtp_angle_r	hip_flexion_l	hip_adduction_l	hip_rotation_l	knee_angle_l	ankle_angle_l	subtalar_angle_l	mtp_angle_l	lumbar_extension	lumbar_bending	lumbar_rotation	arm_flex_r	arm_add_r	arm_rot_r	elbow_flex_r	pro_sup_r	wrist_flex_r	wrist_dev_r	arm_flex_l	arm_add_l	arm_rot_l	elbow_flex_l	pro_sup_l	wrist_flex_l	wrist_dev_l
1.75	0.205611	1.194	1.41884	0.678042	1.55915	1.00214	0.0833214	0.0424261	-0.17107	0.259284	-0.0849337	0	0	0.666607	-0.0639801	-0.235814	0.0416355	-0.229188	0	0	0.300278	0.00229293	0.0624353	-0.141041	-0.245169	0.0347422	0.909277	1.5708	0	0	-0.301977	-0.240372	0.254441	0.46673	1.1246	0	0
1.76	0.191406	1.19764	1.4297	0.676353	1.57405	1.00055	0.0794993	0.032372	-0.1689	0.288045	-0.0887326	0	0	0.665778	-0.0553994	-0.235103	0.0701123	-0.2461	0	0	0.30099	-0.0063702	0.0664812	-0.143843	-0.237483	0.0339071	0.887733	1.5708	0	0	-0.304145	-0.242678	0.257501	0.463954	1.10875	0	0
1.77	0.172391	1.19945	1.44523	0.674591	1.58915	0.999139	0.079746	0.0203041	-0.164497	0.320345	-0.0969743	0	0	0.666175	-0.044989	-0.22901	0.0915718	-0.274683	0	0	0.305571	-0.0167664	0.0704784	-0.145846	-0.22969	0.0361189	0.860959	1.5708	0	0	-0.306765	-0.245889	0.263007	0.460791	1.08979	0	0
1.78	0.149755	1.1986	1.46537	0.672918	1.60414	0.998049	0.0857434	0.00714795	-0.156641	0.357644	-0.109302	0	0	0.669913	-0.0347837	-0.216296	0.111713	-0.29772	0	0	0.313887	-0.0292964	0.0729	-0.145826	-0.2206	0.0413322	0.827859	1.5708	0	0	-0.309454	-0.250096	0.26921	0.457246	1.06917	0	0
1.79	0.126802	1.1955	1.4871	0.671288	1.61894	0.997314	0.0972083	-0.00585262	-0.145146	0.399798	-0.127006	0	0	0.676178	-0.0273797	-0.199623	0.136239	-0.305927	0	0	0.324521	-0.0425217	0.073225	-0.144012	-0.210767	0.0491007	0.790142	1.5708	0	0	-0.311761	-0.254748	0.276695	0.453374	1.04839	0	0
1.8	0.103862	1.19242	1.51064	0.669473	1.63356	0.996985	0.111551	-0.0195824	-0.131679	0.445628	-0.153356	0	0	0.682062	-0.0212323	-0.181291	0.166802	-0.296812	0	0	0.334403	-0.0560635	0.0713965	-0.141103	-0.201163	0.0587596	0.750173	1.5708	0	0	-0.313162	-0.259868	0.28708	0.450428	1.02497	0	0
1.81	0.0803225	1.19045	1.53697	0.667366	1.64795	0.997047	0.127276	-0.0347256	-0.118665	0.493379	-0.187629	0	0	0.686571	-0.0141319	-0.161009	0.202004	-0.277258	0	0	0.341159	-0.0702373	0.0676463	-0.138075	-0.191535	0.0674161	0.710512	1.5708	0	0	-0.313054	-0.265368	0.299064	0.449237	1.00387	0	0
1.82	0.0558917	1.1879	1.56556	0.665065	1.66204	0.997346	0.145771	-0.0506522	-0.104725	0.541533	-0.231627	0	0	0.691337	-0.00536113	-0.1411	0.239034	-0.255395	0	0	0.347318	-0.0849157	0.0619787	-0.13459	-0.18255	0.0776421	0.67043	1.5708	0	0	-0.312742	-0.271723	0.313171	0.450919	0.981035	0	0
1.83	0.0307048	1.1851	1.59472	0.662627	1.67582	0.997831	0.167041	-0.0667705	-0.0890275	0.591297	-0.276848	0	0	0.694957	0.00497422	-0.126356	0.273152	-0.236604	0	0	0.352175	-0.0993293	0.056704	-0.131906	-0.174157	0.0868123	0.632168	1.5708	0	0	-0.311311	-0.277879	0.325492	0.454444	0.964425	0	0
1.84	0.00545417	1.18362	1.62279	0.660114	1.68932	0.998498	0.189831	-0.082352	-0.0720081	0.643799	-0.325639	0	0	0.695178	0.0164434	-0.118984	0.301934	-0.218833	0	0	0.354201	-0.112622	0.051815	-0.128781	-0.16766	0.0988598	0.595281	1.5708	0	0	-0.308632	-0.284154	0.338547	0.459885	0.950886	0	0
1.85	-0.0180728	1.18402	1.6475	0.657621	1.70248	0.999232	0.213939	-0.0964449	-0.0555368	0.699181	-0.375761	0	0	0.691634	0.0277009	-0.116631	0.32626	-0.20211	0	0	0.35247	-0.12359	0.047813	-0.12569	-0.163334	0.113495	0.561715	1.5708	0	0	-0.304116	-0.290205	0.351634	0.467177	0.940152	0	0
1.86	-0.0402524	1.18771	1.66819	0.655271	1.71531	1.00008	0.237722	-0.108879	-0.0397191	0.755884	-0.429368	0	0	0.682633	0.0375051	-0.117321	0.347698	-0.184077	0	0	0.345383	-0.131829	0.0453927	-0.122274	-0.161287	0.131394	0.532248	1.5708	0	0	-0.297475	-0.295846	0.363912	0.476359	0.93213	0	0
1.87	-0.062903	1.1936	1.68489	0.653232	1.72803	1.00104	0.261691	-0.119867	-0.0233771	0.811267	-0.488727	0	0	0.668525	0.0449936	-0.123279	0.366006	-0.164098	0	0	0.335611	-0.137489	0.0463758	-0.118539	-0.161256	0.153938	0.505097	1.5708	0	0	-0.289586	-0.300932	0.37524	0.486348	0.927814	0	0
1.88	-0.0818358	1.20042	1.69335	0.651717	1.74059	1.00222	0.286324	-0.127336	-0.00638085	0.86227	-0.550077	0	0	0.65138	0.0484026	-0.133122	0.381011	-0.14366	0	0	0.325255	-0.139252	0.0506949	-0.113544	-0.162622	0.182173	0.477759	1.5708	0	0	-0.28026	-0.304898	0.38533	0.495321	0.927513	0	0
1.89	-0.0944646	1.20718	1.69268	0.650623	1.75299	1.00367	0.311609	-0.130622	0.0112353	0.908362	-0.598337	0	0	0.632857	0.0480795	-0.144528	0.391512	-0.125323	0	0	0.315977	-0.137076	0.0566549	-0.107172	-0.16465	0.21626	0.448876	1.5708	0	0	-0.270194	-0.307283	0.393361	0.502684	0.931326	0	0
1.9	-0.100672	1.2135	1.6846	0.649797	1.7653	1.00536	0.337318	-0.130448	0.028515	0.951135	-0.617988	0	0	0.6134	0.045052	-0.155795	0.396561	-0.110966	0	0	0.308238	-0.131867	0.0634009	-0.100915	-0.166818	0.253284	0.420237	1.5708	0	0	-0.259978	-0.308325	0.398519	0.509168	0.938944	0	0
1.91	-0.103542	1.21983	1.67474	0.648919	1.7776	1.00721	0.361856	-0.128911	0.0438864	0.990919	-0.611343	0	0	0.592348	0.041716	-0.165752	0.396129	-0.0990409	0	0	0.301669	-0.125788	0.0659261	-0.0935054	-0.169723	0.300303	0.391799	1.5708	0	0	-0.253085	-0.308672	0.396932	0.518198	0.950039	0	0
1.92	-0.102784	1.22451	1.6635	0.648008	1.78975	1.00915	0.386814	-0.126456	0.0564001	1.0275	-0.583109	0	0	0.572011	0.0378763	-0.174448	0.391468	-0.091597	0	0	0.297394	-0.119037	0.0654286	-0.0873066	-0.17231	0.348271	0.365978	1.5708	0	0	-0.248134	-0.30888	0.390702	0.529141	0.965668	0	0
1.93	-0.0982793	1.22765	1.65206	0.646957	1.80174	1.01123	0.412206	-0.123861	0.0643279	1.06115	-0.540812	0	0	0.55278	0.033945	-0.18262	0.383803	-0.0880288	0	0	0.295104	-0.112243	0.0596651	-0.0810528	-0.174527	0.399575	0.34153	1.5708	0	0	-0.246066	-0.308282	0.37644	0.542148	0.986618	0	0
1.94	-0.0935308	1.2297	1.64272	0.645547	1.81345	1.01351	0.438023	-0.122507	0.0687365	1.09068	-0.495876	0	0	0.53438	0.0313808	-0.191867	0.37412	-0.0880259	0	0	0.293857	-0.105717	0.0518576	-0.0763223	-0.17696	0.446199	0.32077	1.5708	0	0	-0.243719	-0.306848	0.359894	0.554906	1.01135	0	0
